<?xml version="1.0" encoding="UTF-8"?>
<svg width="452px" height="122px" viewBox="0 0 452 122" version="1.1" xmlns="http://www.w3.org/2000/svg" xmlns:xlink="http://www.w3.org/1999/xlink">
    <!-- Generator: Sketch 50.2 (55047) - http://www.bohemiancoding.com/sketch -->
    <title>Camro_groen_payoff_2019</title>
    <desc>Created with Sketch.</desc>
    <defs>
        <polygon id="path-1" points="0.06 0.663 77.071 0.663 77.071 83.172 0.06 83.172"></polygon>
    </defs>
    <g id="Camro_groen_payoff_2019" stroke="none" stroke-width="1" fill="none" fill-rule="evenodd">
        <g id="Group-3">
            <mask id="mask-2" fill="white">
                <use xlink:href="#path-1"></use>
            </mask>
            <g id="Clip-2"></g>
            <path d="M41.893,72.299 C47.01,72.299 51.539,70.859 55.485,67.982 C59.427,65.103 62.306,61.372 64.119,56.787 L77.071,56.787 C74.618,64.679 70.141,71.019 63.64,75.816 C56.817,80.721 48.714,83.172 39.335,83.172 C27.607,83.172 18.068,79.174 10.713,71.18 C3.57,63.399 0,53.645 0,41.918 C0,30.193 3.57,20.439 10.713,12.656 C18.068,4.661 27.607,0.663 39.335,0.663 C48.714,0.663 56.817,3.116 63.64,8.019 C70.141,12.816 74.618,19.158 77.071,27.048 L64.119,27.048 C62.306,22.465 59.427,18.732 55.485,15.854 C51.539,12.976 47.01,11.537 41.893,11.537 C36.777,11.537 32.431,12.337 28.862,13.936 C25.289,15.534 22.278,17.72 19.827,20.491 C14.603,26.248 11.992,33.391 11.992,41.918 C11.992,50.447 14.603,57.587 19.827,63.344 C25.156,69.315 32.512,72.299 41.893,72.299" id="Fill-1" fill="#0D5E34" mask="url(#mask-2)"></path>
        </g>
        <path d="M150.7,1.943 L150.7,11.125 C149.554,10.032 148.35,8.986 147.04,8.019 C140.841,3.567 133.586,1.141 125.279,0.732 C125.159,0.726 125.04,0.719 124.921,0.714 C124.338,0.69 123.751,0.675 123.157,0.67 C123.064,0.67 122.972,0.664 122.879,0.664 C122.858,0.664 122.837,0.665 122.816,0.665 C122.788,0.665 122.761,0.664 122.735,0.664 C120.748,0.664 118.828,0.788 116.966,1.018 C107.636,2.143 99.957,6.016 93.937,12.656 C86.901,20.547 83.383,30.299 83.383,41.918 C83.383,53.537 86.901,63.291 93.937,71.18 C101.185,79.174 110.567,83.172 122.079,83.172 C122.185,83.172 122.287,83.165 122.393,83.164 C122.508,83.165 122.62,83.172 122.735,83.172 C132.113,83.172 140.216,80.721 147.04,75.816 C148.35,74.85 149.554,73.803 150.7,72.71 L150.7,81.893 L162.694,81.893 L162.694,1.943 L150.7,1.943 Z M144.145,63.344 C143.275,64.381 142.346,65.322 141.367,66.178 C140.504,66.812 139.662,67.413 138.884,67.982 C138.218,68.468 137.529,68.897 136.83,69.301 C133.248,71.191 129.122,72.183 124.451,72.281 C115.474,72.107 108.395,69.135 103.227,63.344 C98.003,57.587 95.392,50.447 95.392,41.918 C95.392,33.391 98.003,26.248 103.227,20.491 C105.678,17.72 108.689,15.534 112.261,13.936 C115.631,12.426 119.699,11.637 124.446,11.553 C129.148,11.653 133.298,12.657 136.897,14.572 C137.572,14.965 138.239,15.383 138.884,15.854 C139.531,16.326 140.252,16.824 141.005,17.344 C142.12,18.281 143.168,19.328 144.145,20.491 C148.943,26.143 151.341,33.282 151.341,41.918 C151.341,50.552 148.943,57.696 144.145,63.344 Z" id="Fill-4" fill="#0D5E34"></path>
        <path d="M184.67,14.095 C189.999,5.14 198.101,0.663 208.975,0.663 C214.304,0.663 219.233,2.077 223.765,4.901 C228.296,7.726 231.841,11.697 234.399,16.813 C238.021,10.097 243.673,5.3 251.348,2.423 C254.438,1.25 257.928,0.663 261.821,0.663 C265.712,0.663 269.441,1.438 273.015,2.983 C276.586,4.529 279.756,6.739 282.528,9.618 C288.497,16.013 291.483,24.009 291.483,33.602 L291.483,81.893 L279.49,81.893 L279.49,33.923 C279.49,27.314 277.623,21.878 273.893,17.613 C270.161,13.563 265.42,11.536 259.663,11.536 C253.587,11.536 248.522,13.51 244.472,17.452 C240.207,21.506 238.076,27.048 238.076,34.082 L238.076,81.893 L226.084,81.893 L226.084,33.923 C226.084,27.314 224.217,21.878 220.487,17.613 C216.754,13.563 212.012,11.536 206.256,11.536 C200.18,11.536 195.115,13.51 191.066,17.452 C186.801,21.506 184.67,27.048 184.67,34.082 L184.67,81.893 L172.677,81.893 L172.677,1.943 L184.67,1.943 L184.67,14.095" id="Fill-5" fill="#0D5E34"></path>
        <g id="Group-9" transform="translate(300.000000, 0.000000)" fill="#89BB41">
            <path d="M64.365,75.469 L47.211,49.145 C49.117,48.662 51.064,47.977 53.011,47.105 C61.41,43.435 65.668,36.465 65.668,26.388 C65.668,25.66 65.639,24.95 65.595,24.25 C65.168,17.476 62.688,11.993 58.195,7.942 C53.255,3.408 46.627,1.109 38.495,1.109 L37.667,1.109 C27.966,1.617 19.679,4.962 12.966,11.07 C12.291,11.685 11.626,12.317 10.982,12.987 C10.861,13.112 10.75,13.242 10.631,13.368 C6.556,17.678 3.687,22.644 1.828,28.148 C0.31,32.643 0.196,39.918 0.196,39.918 L0.196,81.021 L10.631,81.021 L10.631,50.957 L36.645,50.957 L55.165,80.358 L55.582,81.021 L67.983,81.021 L64.365,75.469 Z M10.6307388,40.996 C10.6307388,40.996 10.585,35.08 11.714,31.331 C13,27.059 15.222,23.314 18.261,20.101 C23.841,14.215 31.257,11.23 40.303,11.23 C40.308,11.23 40.312,11.231 40.316,11.231 C44.389,11.651 47.787,12.972 50.419,15.205 C53.659,17.957 55.234,21.615 55.234,26.388 C55.234,29.309 54.674,31.723 53.571,33.56 C50.58,38.494 44.99,40.996 36.956,40.996 L10.6307388,40.996 Z" id="Fill-6"></path>
            <path d="M140.637,12.119 C133.024,4.185 123.158,0.162 111.314,0.162 C99.469,0.162 89.603,4.185 81.993,12.116 C74.543,19.806 70.766,29.545 70.766,41.065 C70.766,52.584 74.543,62.324 81.991,70.011 C89.603,77.944 99.469,81.967 111.314,81.967 C123.158,81.967 133.024,77.944 140.634,70.013 C148.084,62.323 151.861,52.584 151.861,41.065 C151.861,29.546 148.084,19.807 140.637,12.119 M133.355,62.899 C130.478,65.934 127.109,68.192 123.284,69.673 C129.605,59.706 127.916,40.901 127.916,40.901 L126.624,42.009 C108.539,46.641 99.369,62.775 103.433,70.922 C97.877,69.656 93.133,66.974 89.272,62.9 C83.917,57.239 81.201,49.892 81.201,41.065 C81.201,32.24 83.917,24.893 89.272,19.23 C94.852,13.344 102.268,10.359 111.314,10.359 C120.359,10.359 127.774,13.344 133.355,19.229 C138.711,24.895 141.427,32.241 141.427,41.065 C141.427,49.89 138.711,57.236 133.355,62.899" id="Fill-8"></path>
        </g>
        <path d="M17.47,108.533 L15.628,108.533 C15.207,106.35 13.629,104.93 10.604,104.93 C7.894,104.93 6.106,106.244 6.106,108.323 C6.106,109.954 7.421,110.953 9.788,111.374 L12.498,111.901 C15.654,112.506 17.47,114.005 17.47,116.557 C17.47,119.819 14.813,121.976 10.814,121.976 C6.527,121.976 3.791,119.739 3.37,115.873 L5.211,115.873 C5.658,118.661 7.605,120.292 10.893,120.292 C13.734,120.292 15.549,118.898 15.549,116.767 C15.549,115.268 14.524,114.137 12.182,113.716 L9.078,113.111 C5.79,112.506 4.133,110.849 4.133,108.428 C4.133,105.351 6.684,103.298 10.499,103.298 C14.103,103.298 17.023,105.008 17.47,108.533" id="Fill-10" fill="#0D5E34"></path>
        <path d="M39.612,105.823 L35.693,114.662 L43.532,114.662 L39.612,105.823 Z M34.93,116.372 L32.615,121.581 L30.616,121.581 L38.718,103.562 L40.507,103.562 L48.61,121.581 L46.61,121.581 L44.295,116.372 L34.93,116.372 Z" id="Fill-11" fill="#0D5E34"></path>
        <polyline id="Fill-12" fill="#0D5E34" points="64.438 112.269 73.645 112.269 73.645 114.005 64.438 114.005 64.438 121.581 62.571 121.581 62.571 103.693 74.777 103.693 74.777 105.403 64.438 105.403 64.438 112.269"></polyline>
        <polyline id="Fill-13" fill="#0D5E34" points="90.764 111.821 100.26 111.821 100.26 113.558 90.764 113.558 90.764 119.871 101.313 119.871 101.313 121.581 88.896 121.581 88.896 103.693 101.313 103.693 101.313 105.403 90.764 105.403 90.764 111.821"></polyline>
        <path d="M140.051,113.979 C143.102,113.979 145.128,112.216 145.128,109.612 C145.128,107.086 143.102,105.403 140.051,105.403 L135.763,105.403 L135.763,113.979 L140.051,113.979 Z M140.13,103.693 C144.234,103.693 146.969,106.061 146.969,109.612 C146.969,113.269 144.154,115.689 139.893,115.689 L135.763,115.689 L135.763,121.581 L133.895,121.581 L133.895,103.693 L140.13,103.693 Z" id="Fill-14" fill="#0D5E34"></path>
        <polyline id="Fill-15" fill="#0D5E34" points="163.009 111.821 172.506 111.821 172.506 113.558 163.009 113.558 163.009 119.871 173.558 119.871 173.558 121.581 161.142 121.581 161.142 103.693 173.558 103.693 173.558 105.403 163.009 105.403 163.009 111.821"></polyline>
        <path d="M201.515,108.533 L199.674,108.533 C199.253,106.35 197.674,104.93 194.649,104.93 C191.94,104.93 190.151,106.244 190.151,108.323 C190.151,109.954 191.466,110.953 193.834,111.374 L196.543,111.901 C199.7,112.506 201.515,114.005 201.515,116.557 C201.515,119.819 198.858,121.976 194.86,121.976 C190.572,121.976 187.836,119.739 187.415,115.873 L189.257,115.873 C189.704,118.661 191.65,120.292 194.939,120.292 C197.779,120.292 199.595,118.898 199.595,116.767 C199.595,115.268 198.569,114.137 196.228,113.716 L193.124,113.111 C189.835,112.506 188.178,110.849 188.178,108.428 C188.178,105.351 190.73,103.298 194.544,103.298 C198.148,103.298 201.068,105.008 201.515,108.533" id="Fill-16" fill="#0D5E34"></path>
        <polyline id="Fill-17" fill="#0D5E34" points="223.132 105.403 223.132 121.581 221.264 121.581 221.264 105.403 214.609 105.403 214.609 103.693 229.787 103.693 229.787 105.403 223.132 105.403"></polyline>
        <path d="M267.657,119.871 C272.05,119.871 275.154,116.82 275.154,112.506 C275.154,108.375 272.05,105.403 267.657,105.403 L263.316,105.403 L263.316,119.871 L267.657,119.871 Z M267.657,103.693 C273.181,103.693 277.075,107.35 277.075,112.506 C277.075,117.846 273.181,121.581 267.657,121.581 L261.449,121.581 L261.449,103.693 L267.657,103.693 Z" id="Fill-18" fill="#0D5E34"></path>
        <polyline id="Fill-19" fill="#0D5E34" points="293.693 111.821 303.189 111.821 303.189 113.558 293.693 113.558 293.693 119.871 304.242 119.871 304.242 121.581 291.825 121.581 291.825 103.693 304.242 103.693 304.242 105.403 293.693 105.403 293.693 111.821"></polyline>
        <polyline id="Fill-20" fill="#0D5E34" points="320.939 112.269 330.146 112.269 330.146 114.005 320.939 114.005 320.939 121.581 319.072 121.581 319.072 103.693 331.278 103.693 331.278 105.403 320.939 105.403 320.939 112.269"></polyline>
        <polyline id="Fill-21" fill="#0D5E34" points="347.265 111.821 356.761 111.821 356.761 113.558 347.265 113.558 347.265 119.871 357.814 119.871 357.814 121.581 345.397 121.581 345.397 103.693 357.814 103.693 357.814 105.403 347.265 105.403 347.265 111.821"></polyline>
        <polyline id="Fill-22" fill="#0D5E34" points="387.797 121.581 386.192 121.581 374.511 107.086 374.511 121.581 372.644 121.581 372.644 103.693 374.17 103.693 385.928 118.372 385.928 103.693 387.797 103.693 387.797 121.581"></polyline>
        <path d="M418.541,115.294 L420.461,115.294 C419.619,119.24 416.331,121.949 411.965,121.949 C406.808,121.949 402.678,117.899 402.678,112.637 C402.678,107.376 406.808,103.324 411.965,103.324 C416.331,103.324 419.619,106.034 420.461,109.981 L418.541,109.981 C417.778,107.034 415.332,105.113 411.965,105.113 C407.807,105.113 404.546,108.349 404.546,112.637 C404.546,116.925 407.807,120.16 411.965,120.16 C415.332,120.16 417.778,118.24 418.541,115.294" id="Fill-23" fill="#0D5E34"></path>
        <polyline id="Fill-24" fill="#0D5E34" points="437.211 111.821 446.707 111.821 446.707 113.558 437.211 113.558 437.211 119.871 447.759 119.871 447.759 121.581 435.342 121.581 435.342 103.693 447.759 103.693 447.759 105.403 437.211 105.403 437.211 111.821"></polyline>
    </g>
</svg>